<mxfile host="app.diagrams.net" modified="2023-11-02T06:21:31.258Z" agent="Mozilla/5.0 (Macintosh; Intel Mac OS X 10_15_7) AppleWebKit/605.1.15 (KHTML, like Gecko) Version/17.0 Safari/605.1.15" version="22.0.8" etag="YeHA4n6oPPErfddg-q06" type="github">
  <diagram name="第 1 页" id="HeDWFqhoXN4axxJUBEIz">
    <mxGraphModel>
      <root>
        <mxCell id="0" />
        <mxCell id="1" parent="0" />
      </root>
    </mxGraphModel>
  </diagram>
</mxfile>
